<svg width="600" height="400" viewBox="0 0 600 400" xmlns="http://www.w3.org/2000/svg">
  <!-- Background -->
  <rect width="600" height="400" fill="#f5f8ff"/>
  
  <!-- Phone Frame -->
  <rect x="240" y="60" width="120" height="220" rx="10" fill="#4e73df"/>
  <rect x="245" y="65" width="110" height="210" rx="6" fill="white"/>
  
  <!-- Screen Content -->
  <rect x="255" y="75" width="90" height="60" rx="3" fill="#f0f3f8"/>
  <rect x="255" y="145" width="90" height="40" rx="3" fill="#f0f3f8"/>
  <rect x="255" y="195" width="40" height="40" rx="3" fill="#f0f3f8"/>
  <rect x="305" y="195" width="40" height="40" rx="3" fill="#f0f3f8"/>
  <rect x="255" y="245" width="90" height="20" rx="3" fill="#4e73df"/>
  
  <!-- Share Icon -->
  <circle cx="150" cy="170" r="50" fill="#4e73df" opacity="0.2"/>
  <circle cx="150" cy="170" r="30" fill="#4e73df"/>
  <path d="M140 170 L160 155 L160 165 L180 165 L180 175 L160 175 L160 185 Z" fill="white"/>
  
  <!-- Heart Icon -->
  <circle cx="450" cy="170" r="50" fill="#4e73df" opacity="0.2"/>
  <path d="M450 190 L435 175 C430 170 430 160 435 155 C440 150 450 150 455 155 L450 160 L445 155 C440 150 430 150 425 155 C420 160 420 170 425 175 Z" fill="#4e73df"/>
  
  <!-- Decorative Elements -->
  <circle cx="100" cy="100" r="15" fill="#4e73df" opacity="0.2"/>
  <circle cx="500" cy="100" r="10" fill="#4e73df" opacity="0.2"/>
  <circle cx="100" cy="280" r="10" fill="#4e73df" opacity="0.2"/>
  <circle cx="500" cy="280" r="15" fill="#4e73df" opacity="0.2"/>
  
  <!-- Text -->
  <text x="300" y="350" font-family="Arial" font-size="24" fill="#4e73df" text-anchor="middle">Share your moments</text>
</svg>